<svg width="983" height="804" viewBox="0 0 983 804" fill="none" xmlns="http://www.w3.org/2000/svg">
<g clip-path="url(#clip0)">
<path opacity="0.1" d="M958.99 465.51C958.99 466.12 958.99 466.73 958.99 467.33C958.883 477.85 958.26 488.343 957.12 498.81C957.125 498.873 957.125 498.937 957.12 499C957.03 499.87 956.93 500.73 956.83 501.6C956.66 503.07 956.48 504.53 956.28 506C953.949 523.893 950.091 541.554 944.75 558.79C937.594 582.08 927.478 604.356 914.65 625.07C910.703 631.403 906.5 637.533 902.04 643.46C899.66 646.6 897.23 649.67 894.72 652.69C892.96 654.803 891.167 656.883 889.34 658.93L888.2 660.19C878.589 670.743 868.229 680.589 857.2 689.65C839.2 704.57 819.82 717.55 800.13 729.59C799.01 730.28 797.88 730.96 796.75 731.59C796.671 731.647 796.588 731.698 796.5 731.74C769.74 747.92 741.99 762.52 713.4 774.21C682.1 787.04 649.78 796.37 616.62 800.45C570.4 806.13 523.62 801.51 477.68 793.57C439.473 787.005 401.728 777.987 364.68 766.57L358.58 764.66C355.42 763.653 352.263 762.627 349.11 761.58C330.063 755.28 311.23 748.28 292.61 740.58C245.845 721.319 201.17 697.331 159.28 668.99C153.947 665.403 148.69 661.737 143.51 657.99C136.27 652.777 129.117 647.41 122.05 641.89L117.69 638.51C99.1965 624.029 81.8698 608.117 65.87 590.92C44.35 567.5 25.96 541.08 13.87 510.92C11.9634 506.18 10.2167 501.35 8.63003 496.43L8.48003 495.94C7.68003 493.44 6.94003 490.94 6.26003 488.34C5.26003 484.62 4.38336 480.853 3.63003 477.04C3.47003 476.31 3.33003 475.58 3.20003 474.84C0.809915 462.007 -0.245709 448.961 0.0500269 435.91C0.300132 424.475 1.63952 413.091 4.05003 401.91C6.51724 390.32 10.3193 379.055 15.38 368.34C19.9534 358.705 25.7806 349.717 32.71 341.61C37.5793 335.942 43.0553 330.825 49.04 326.35C59.89 318.27 71.92 312.64 84.39 308.19C90.25 306.09 96.19 304.25 102.16 302.54C106.39 301.32 110.64 300.16 114.87 299.02L127.35 295.65C135.35 293.47 143.35 291.23 151.23 288.81C172.71 282.25 193.76 274.31 213.23 262.47C216.31 260.6 219.45 258.55 222.59 256.35C226.59 253.57 230.53 250.55 234.43 247.29C238.37 243.99 242.23 240.46 245.91 236.72C246.48 236.14 247.04 235.56 247.6 234.97C250.6 231.81 253.51 228.5 256.21 225.06C257.53 223.38 258.81 221.67 260.03 219.93C261.72 217.52 263.32 215.07 264.8 212.55C272.22 199.95 276.8 186.05 276.26 171.4C276.181 168.986 275.964 166.579 275.61 164.19C274.31 155.36 273.06 146.74 272.14 138.31C268.28 103.44 269.91 71.8201 296.08 42.1101C328.62 5.18009 379.69 -2.34991 426.18 0.600089C560.59 9.10009 682.95 85.8401 790.48 177.2C799.78 185.093 808.967 193.093 818.04 201.2C820.327 203.24 822.617 205.293 824.91 207.36C841.91 222.67 858.65 238.55 874.24 255.56C875.5 256.94 876.76 258.32 878 259.71C878.76 260.57 879.53 261.42 880.28 262.29C885.14 267.79 889.857 273.423 894.43 279.19C906.681 294.499 917.5 310.902 926.75 328.19C940.914 355.322 950.503 384.606 955.13 414.86C956.87 425.847 958.015 436.92 958.56 448.03C958.73 451.3 958.84 454.58 958.9 457.85C958.9 458.9 958.9 459.94 958.9 460.99C959 462.51 959 463.99 958.99 465.51Z" fill="#0B95D4"/>
<path d="M663.979 664.774L647.979 949.564L663.979 949.774L676.979 660.774L663.979 664.774Z" fill="#3F3D56"/>
<path d="M658.819 785.604C658.259 788.194 657.529 790.754 656.759 793.304C654.489 800.674 651.759 807.944 651.229 815.604C650.519 825.724 653.229 837.494 646.229 844.844C644.429 846.744 642.079 848.164 640.469 850.194C640.221 850.512 639.994 850.847 639.789 851.194C638.349 853.574 638.179 856.474 638.159 859.194C638.175 864.995 638.553 870.79 639.289 876.544C641.659 896.344 646.339 916.184 640.189 934.874C639.074 938.116 637.776 941.291 636.299 944.384C633.299 950.984 630.029 957.494 629.049 964.644C628.329 969.944 628.549 975.404 628.509 980.794C625.349 979.787 622.192 978.761 619.039 977.714C599.992 971.414 581.159 964.414 562.539 956.714C562.589 956.444 562.639 956.164 562.679 955.894C564.109 946.994 562.149 937.894 559.769 929.214C554.769 910.824 547.689 892.614 543.499 874.094C541.811 866.861 540.704 859.504 540.189 852.094C540.069 850.434 539.999 848.764 539.989 847.094C539.939 844.914 539.989 842.734 540.079 840.534C540.289 836.144 540.479 830.934 536.969 828.264C535.039 826.814 532.489 826.564 530.239 825.684C525.899 823.994 522.929 820.074 519.489 816.934C517.848 815.342 515.844 814.174 513.651 813.529C511.457 812.884 509.14 812.783 506.899 813.234C484.419 818.384 467.899 837.454 446.979 847.094C446.169 847.474 445.359 847.834 444.539 848.174C441.833 849.165 439.257 850.481 436.869 852.094C435.19 853.259 433.973 854.975 433.429 856.944C432.899 859.064 433.359 861.284 433.619 863.464C434.04 867.009 433.888 870.598 433.169 874.094C432.898 875.449 432.54 876.785 432.099 878.094C431.299 880.464 430.229 882.784 429.209 885.094C423.875 881.507 418.619 877.841 413.439 874.094C406.199 868.881 399.045 863.514 391.979 857.994L387.689 854.544C369.195 840.063 351.868 824.151 335.869 806.954C337.999 800.954 341.079 795.374 342.559 789.224C343.399 785.694 343.709 782.024 344.869 778.594C346.206 775.038 348.067 771.701 350.389 768.694C358.892 756.835 369.275 746.445 381.129 737.934C393.519 729.054 407.829 721.934 418.979 711.854C423.504 707.893 427.404 703.27 430.549 698.144C430.739 697.834 430.919 697.504 431.079 697.144C431.949 695.334 432.552 693.407 432.869 691.424C433.669 686.944 433.549 682.024 433.949 677.724C447.532 680.075 461.379 680.493 475.079 678.964C491.029 677.174 506.629 672.744 522.579 671.024C523.779 670.884 524.989 670.774 526.199 670.674C531.309 670.264 536.429 670.174 541.559 670.234C545.849 670.234 550.139 670.424 554.429 670.564L601.659 672.164C606.889 672.344 612.229 672.544 617.099 674.454C622.879 676.724 627.509 681.244 631.219 686.214C631.689 686.854 632.159 687.494 632.599 688.154C635.651 692.607 638.1 697.446 639.879 702.544C640.069 703.064 640.249 703.544 640.419 704.114C640.869 705.504 641.259 706.904 641.609 708.324C641.879 709.434 642.119 710.544 642.339 711.664C643.439 717.204 644.089 722.864 645.829 728.214C645.949 728.604 646.079 728.994 646.219 729.374C648.309 735.234 651.779 740.484 654.399 746.114C656.288 750.19 657.729 754.458 658.699 758.844C660.657 767.652 660.698 776.779 658.819 785.604V785.604Z" fill="#35323E"/>
<path d="M515.259 427.734C511.039 424.374 504.919 426.834 499.979 429.004C495.837 430.834 491.573 432.374 487.219 433.614C486.328 433.957 485.361 434.057 484.419 433.904C482.419 433.424 481.579 431.054 480.089 429.614C477.499 427.124 473.259 427.714 469.919 429.064C466.579 430.414 463.279 432.364 459.699 432.064C455.879 431.764 452.559 428.944 448.699 428.854C441.899 428.694 436.189 437.074 429.759 434.854C425.839 433.504 422.759 428.404 418.899 429.854C415.899 430.994 415.629 435.144 413.819 437.854C411.689 441.014 407.539 441.904 403.989 443.304C392.799 447.724 385.389 460.194 386.849 472.134C387.659 478.724 390.849 484.764 392.959 491.054C399.219 509.344 397.069 529.974 404.959 547.614C405.959 546.674 406.519 546.324 407.489 545.394C404.994 550.568 404.513 556.485 406.139 561.994C406.969 564.764 408.319 567.344 409.339 570.054C410.398 573.094 411.254 576.201 411.899 579.354L420.599 617.734C423.999 632.734 427.409 647.734 427.999 663.094C428.366 673.082 427.601 683.079 425.719 692.894C441.479 690.284 455.899 683.294 471.869 683.384C477.729 683.384 483.539 684.384 489.349 685.184C506.288 687.555 523.375 688.714 540.479 688.654C543.139 688.806 545.803 688.432 548.319 687.554C550.519 686.614 552.319 684.944 554.399 683.734C558.469 681.334 563.399 680.734 568.089 680.734C589.479 680.344 610.089 688.174 631.339 690.934C639.729 673.324 640.229 652.224 633.789 633.814C631.879 628.344 629.309 623.014 628.549 617.264C628.244 613.73 628.163 610.179 628.309 606.634C628.275 597.559 626.64 588.561 623.479 580.054C622.239 576.724 620.749 573.334 620.879 569.784C621.009 566.234 622.759 562.924 624.479 559.784C627.969 553.384 631.479 546.924 636.409 541.524C641.459 535.944 647.779 531.694 654.029 527.524L669.459 517.164C667.349 503.834 664.629 489.794 658.979 477.534C653.329 465.274 644.879 454.004 633.449 446.834C629.595 444.516 625.562 442.51 621.389 440.834C615.549 438.374 609.469 436.204 603.139 435.834C595.939 435.424 588.849 437.354 581.739 438.554C559.359 442.324 533.019 441.864 515.259 427.734Z" fill="#0B95D4"/>
<path d="M683.979 659.054L676.639 668.324L662.799 685.794L646.799 705.984L642.329 711.624H633.659L418.969 711.874L284.519 712.024H278.519C277.719 709.524 276.979 707.024 276.299 704.424C275.299 700.704 274.422 696.938 273.669 693.124C273.509 692.394 273.369 691.664 273.239 690.924L322.019 659.034L340.359 658.934L396.459 658.614L427.789 658.434H433.509H437.099L457.979 658.324L617.119 657.414L625.259 657.364H628.789L638.139 657.314L672.929 657.114L679.609 654.574L680.099 655.094L683.979 659.054Z" fill="#3F3D56"/>
<path d="M680.979 654.054L680.149 655.054L674.689 661.484L663.449 674.754L639.879 702.544L431.079 697.214L273.629 693.214C273.469 692.484 273.329 691.754 273.199 691.014C270.808 678.181 269.753 665.135 270.049 652.084L287.509 643.144L291.509 641.084L322.639 625.084L349.959 611.084L421.219 620.344L436.999 622.394L444.139 623.314L454.589 624.674L455.469 624.794L619.339 646.044L637.449 648.394L648.079 649.774L680.839 654.034L680.979 654.054Z" fill="#504F60"/>
<path d="M646.978 702.054L646.808 705.984L645.808 728.174L640.428 850.174L639.288 876.544L636.288 944.384L634.598 982.704L628.498 980.794C625.338 979.788 622.182 978.761 619.028 977.714L633.658 711.714L633.968 706.134L640.408 704.134L646.978 702.054Z" fill="#3F3D56"/>
<path d="M284.978 701.764L284.528 712.034L283.868 727.034C281.962 722.294 280.215 717.464 278.628 712.544L278.478 712.054C277.678 709.554 276.938 707.054 276.258 704.454L284.978 701.764Z" fill="#3F3D56"/>
<path d="M546.479 550.564C571.884 550.564 592.479 522.806 592.479 488.564C592.479 454.322 571.884 426.564 546.479 426.564C521.073 426.564 500.479 454.322 500.479 488.564C500.479 522.806 521.073 550.564 546.479 550.564Z" fill="#A1616A"/>
<path opacity="0.1" d="M546.479 550.564C571.884 550.564 592.479 522.806 592.479 488.564C592.479 454.322 571.884 426.564 546.479 426.564C521.073 426.564 500.479 454.322 500.479 488.564C500.479 522.806 521.073 550.564 546.479 550.564Z" fill="black"/>
<path d="M552.979 515.064C588.325 515.064 616.979 486.41 616.979 451.064C616.979 415.718 588.325 387.064 552.979 387.064C517.632 387.064 488.979 415.718 488.979 451.064C488.979 486.41 517.632 515.064 552.979 515.064Z" fill="#A1616A"/>
<path d="M554.249 352.424C550.341 352.736 546.461 353.327 542.639 354.194C532.519 356.654 523.769 362.114 515.249 367.474C511.429 369.884 507.499 372.394 505.129 375.934C500.869 382.284 502.519 390.364 500.129 397.414C498.889 401.034 496.609 404.284 494.679 407.654C489.369 416.894 486.589 427.044 483.859 437.094C483.299 439.174 483.139 441.994 485.409 442.794C486.716 443.066 488.075 442.912 489.289 442.354C496.459 439.984 505.569 439.304 510.889 444.114C516.209 448.924 515.759 457.454 522.089 461.114C529.339 465.344 540.659 460.234 547.239 465.224C550.059 467.364 551.079 470.794 553.389 473.374C558.769 479.374 569.119 479.084 577.729 477.874C582.669 477.174 588.729 476.704 591.729 480.174C593.169 481.814 593.579 484.064 595.249 485.544C598.249 488.224 603.739 486.864 606.669 484.114C609.599 481.364 610.999 477.644 613.439 474.554C618.189 468.554 626.539 465.284 631.439 459.354C635.539 454.354 636.779 448.094 637.899 442.054L642.069 419.664C643.759 410.584 645.299 400.664 640.189 392.664C638.369 389.784 635.759 387.304 634.189 384.324C633.139 382.324 632.549 380.214 631.329 378.324C629.882 376.355 628.153 374.61 626.199 373.144L616.329 364.974C612.954 362.02 609.345 359.345 605.539 356.974C591.449 348.764 570.349 350.924 554.249 352.424Z" fill="#464353"/>
<path d="M343.449 517.284C341.079 519.804 338.889 522.524 336.349 524.884C334.114 526.871 331.778 528.741 329.349 530.484C325.429 533.418 321.595 536.454 317.849 539.594C313.94 542.685 310.403 546.218 307.309 550.124C301.969 557.294 299.439 566.214 294.439 573.624C290.019 580.194 283.789 585.384 279.299 591.904C277.329 594.646 275.866 597.717 274.979 600.974C274.316 604.127 274.018 607.344 274.089 610.564C273.999 615.844 273.919 621.184 274.999 626.354C276.079 631.524 278.449 636.604 282.509 639.994C286.279 643.144 291.149 644.594 295.919 645.794C298.379 646.404 301.039 646.974 303.379 646.004C305.091 645.139 306.577 643.886 307.719 642.344L319.889 628.344C328.029 618.944 336.489 609.344 347.659 603.844C351.159 602.134 354.849 600.844 358.359 599.184C373.239 592.014 383.759 577.334 387.839 561.334C388.839 557.424 389.479 553.434 390.129 549.444L391.889 538.504C392.024 537.956 392.024 537.383 391.889 536.834C391.613 536.218 391.169 535.691 390.609 535.314C382.132 528.468 374.195 520.98 366.869 512.914C365.129 510.994 363.499 508.364 361.489 506.754C358.969 504.754 359.159 504.904 356.129 506.754C351.468 509.706 347.206 513.245 343.449 517.284V517.284Z" fill="#A1616A"/>
<path d="M426.698 590.084C426.597 589.852 426.45 589.642 426.266 589.468C426.082 589.295 425.864 589.16 425.627 589.072C425.389 588.984 425.136 588.945 424.883 588.957C424.63 588.97 424.382 589.033 424.154 589.144C423.926 589.254 423.723 589.41 423.557 589.601C423.39 589.792 423.264 590.015 423.186 590.256C423.108 590.497 423.08 590.751 423.102 591.003C423.125 591.256 423.199 591.501 423.318 591.724L422.318 592.214L452.138 653.334L457.528 650.704L427.708 589.544L426.698 590.084Z" fill="#3F3D56"/>
<path opacity="0.04" d="M343.449 517.284C341.079 519.804 338.889 522.524 336.349 524.884C334.114 526.871 331.778 528.741 329.349 530.484C325.429 533.418 321.595 536.454 317.849 539.594C313.94 542.685 310.403 546.218 307.309 550.124C301.969 557.294 299.439 566.214 294.439 573.624C290.019 580.194 283.789 585.384 279.299 591.904C277.329 594.646 275.866 597.717 274.979 600.974C274.316 604.127 274.018 607.344 274.089 610.564C273.999 615.844 273.919 621.184 274.999 626.354C276.079 631.524 278.449 636.604 282.509 639.994C286.279 643.144 291.149 644.594 295.919 645.794C298.379 646.404 301.039 646.974 303.379 646.004C305.091 645.139 306.577 643.886 307.719 642.344L319.889 628.344C328.029 618.944 336.489 609.344 347.659 603.844C351.159 602.134 354.849 600.844 358.359 599.184C373.239 592.014 383.759 577.334 387.839 561.334C388.839 557.424 389.479 553.434 390.129 549.444L391.889 538.504C392.024 537.956 392.024 537.383 391.889 536.834C391.613 536.218 391.169 535.691 390.609 535.314C382.132 528.468 374.195 520.98 366.869 512.914C365.129 510.994 363.499 508.364 361.489 506.754C358.969 504.754 359.159 504.904 356.129 506.754C351.468 509.706 347.206 513.245 343.449 517.284V517.284Z" fill="black"/>
<path d="M688.189 629.924C688.089 636.304 687.839 642.874 685.189 648.694C684.049 651.214 682.279 653.694 679.629 654.524C678.025 654.895 676.365 654.956 674.739 654.704C655.12 652.98 635.35 654.548 616.249 659.344C621.349 649.144 618.419 636.914 619.829 625.594C620.219 622.504 620.929 619.464 621.199 616.364C622.199 605.364 617.489 594.684 615.329 583.824C613.454 574.424 613.454 564.745 615.329 555.344C615.696 552.925 616.528 550.599 617.779 548.494C619.243 546.447 621.168 544.772 623.399 543.604C631.499 538.994 641.049 538.464 650.149 539.074C656.279 539.484 668.569 538.904 673.679 542.674C679.269 546.804 681.039 560.674 682.549 567.084C684.81 576.915 686.347 586.899 687.149 596.954C688.129 607.914 688.339 618.924 688.189 629.924Z" fill="#A1616A"/>
<path d="M329.979 652.064L365.979 676.064L527.979 670.064L420.979 652.064H329.979Z" fill="white"/>
<path d="M377.449 461.374C371.539 466.584 366.529 472.724 360.929 478.274C353.249 485.894 344.519 492.374 335.829 498.824C338.944 499.695 341.781 501.36 344.059 503.656C346.338 505.953 347.982 508.802 348.829 511.924C349.209 513.394 349.399 514.924 349.829 516.364C350.829 519.774 353.029 522.714 355.389 525.364C365.529 536.794 379.719 545.254 385.699 559.364C385.894 560.051 386.317 560.65 386.899 561.064C387.385 561.279 387.926 561.342 388.449 561.244C393.859 560.674 397.999 556.314 401.449 552.074C408.649 543.074 414.899 533.134 418.449 522.154C421.999 511.174 422.569 499.034 418.699 488.154C416.769 482.734 413.789 477.754 410.829 472.824C408.235 468.511 405.649 464.204 403.069 459.904C401.719 457.634 399.999 453.024 397.349 451.904C391.629 449.444 381.119 457.704 377.449 461.374Z" fill="#0B95D4"/>
<path d="M671.988 526.004L680.498 546.004C671.234 542.767 661.333 541.782 651.613 543.129C641.892 544.477 632.632 548.119 624.598 553.754C619.748 557.224 615.298 561.584 613.108 567.124C612.027 567.33 610.91 567.225 609.886 566.824C608.862 566.422 607.972 565.739 607.318 564.854C606.038 563.059 605.296 560.936 605.178 558.734C604.388 551.054 607.298 543.524 610.178 536.344C611.518 532.984 612.898 529.554 615.278 526.824C617.658 524.094 620.818 522.294 623.978 520.594C634.06 515.019 644.618 510.353 655.528 506.654C660.128 505.164 664.948 505.194 667.528 509.494C670.518 514.624 669.648 520.544 671.988 526.004Z" fill="#0B95D4"/>
<path d="M330.188 586.014C332.318 587.714 334.188 589.724 336.378 591.344C338.694 592.953 341.159 594.336 343.738 595.474L353.598 600.214C356.654 601.803 359.851 603.101 363.148 604.094C367.368 605.224 371.798 605.334 376.038 606.384C381.388 607.704 386.278 610.454 391.548 612.044C396.818 613.634 402.988 613.894 407.388 610.584C410.138 608.514 412.218 605.094 415.628 604.584C417.828 604.294 419.948 605.354 421.908 606.384L447.568 619.874C451.028 621.694 454.688 623.714 456.498 627.184C458.308 630.654 457.088 635.924 453.278 636.824C451.95 636.977 450.615 637.054 449.278 637.054C447.958 637.214 446.518 637.994 446.338 639.324C446.332 640.15 446.549 640.963 446.968 641.674C448.118 644.314 448.458 647.474 447.118 650.034C445.778 652.594 442.488 654.184 439.858 653.034C440.308 656.904 436.098 659.614 432.348 660.644C422.888 663.234 412.858 661.644 403.188 660.004C399.388 659.364 395.528 658.704 392.068 657.004C390.408 656.194 388.868 655.154 387.188 654.404C382.578 652.354 377.338 652.624 372.298 652.714C348.988 653.124 325.878 648.804 302.958 644.504C298.708 643.704 294.338 642.854 290.708 640.504C283.708 635.944 281.108 626.584 282.258 618.304C283.408 610.024 287.608 602.524 291.738 595.244L297.088 585.814C297.788 584.37 298.767 583.078 299.968 582.014C307.838 576.004 323.448 580.594 330.188 586.014Z" fill="#A1616A"/>
<path opacity="0.04" d="M330.188 586.014C332.318 587.714 334.188 589.724 336.378 591.344C338.694 592.953 341.159 594.336 343.738 595.474L353.598 600.214C356.654 601.803 359.851 603.101 363.148 604.094C367.368 605.224 371.798 605.334 376.038 606.384C381.388 607.704 386.278 610.454 391.548 612.044C396.818 613.634 402.988 613.894 407.388 610.584C410.138 608.514 412.218 605.094 415.628 604.584C417.828 604.294 419.948 605.354 421.908 606.384L447.568 619.874C451.028 621.694 454.688 623.714 456.498 627.184C458.308 630.654 457.088 635.924 453.278 636.824C451.95 636.977 450.615 637.054 449.278 637.054C447.958 637.214 446.518 637.994 446.338 639.324C446.332 640.15 446.549 640.963 446.968 641.674C448.118 644.314 448.458 647.474 447.118 650.034C445.778 652.594 442.488 654.184 439.858 653.034C440.308 656.904 436.098 659.614 432.348 660.644C422.888 663.234 412.858 661.644 403.188 660.004C399.388 659.364 395.528 658.704 392.068 657.004C390.408 656.194 388.868 655.154 387.188 654.404C382.578 652.354 377.338 652.624 372.298 652.714C348.988 653.124 325.878 648.804 302.958 644.504C298.708 643.704 294.338 642.854 290.708 640.504C283.708 635.944 281.108 626.584 282.258 618.304C283.408 610.024 287.608 602.524 291.738 595.244L297.088 585.814C297.788 584.37 298.767 583.078 299.968 582.014C307.838 576.004 323.448 580.594 330.188 586.014Z" fill="black"/>
<path d="M635.448 603.294C630.238 605.754 624.258 605.994 618.818 607.884C613.378 609.774 608.758 613.174 603.768 615.944C590.768 623.204 575.768 625.944 561.038 628.554C552.108 630.154 543.038 631.754 534.038 631.374C521.858 630.854 510.158 626.794 498.358 623.734C486.558 620.674 473.968 618.614 462.278 622.054C456.174 623.913 450.593 627.184 445.989 631.602C441.385 636.02 437.887 641.462 435.778 647.484C433.328 654.674 432.988 662.424 433.458 670.004C435.918 671.814 439.358 669.304 440.698 666.554C442.038 663.804 442.768 660.434 445.368 658.834C449.878 660.364 450.978 666.374 454.698 669.344C457.018 671.204 460.118 671.694 463.068 672.114L478.268 674.274C481.928 674.794 486.178 675.144 488.828 672.564C490.118 671.314 490.828 669.564 492.008 668.224C494.428 665.544 498.468 665.084 502.068 665.444C513.308 666.564 523.848 673.854 535.008 672.124C538.848 671.534 542.418 669.894 546.078 668.604C567.768 660.944 591.868 665.604 614.438 661.214C623.048 659.544 631.338 656.584 639.528 653.464C643.978 651.774 648.478 650.004 652.278 647.144C655.878 644.376 658.717 640.74 660.529 636.575C662.341 632.411 663.067 627.855 662.638 623.334C661.801 616.444 658.363 610.134 653.028 605.694C651.268 604.194 648.958 601.324 646.848 600.384C642.818 598.614 638.868 601.684 635.448 603.294Z" fill="#A1616A"/>
<g opacity="0.1">
<path opacity="0.1" d="M606.229 475.544C604.559 474.064 604.149 471.814 602.709 470.174C599.709 466.704 593.649 467.174 588.709 467.874C580.099 469.084 569.709 469.364 564.369 463.374C562.059 460.794 561.039 457.374 558.219 455.224C551.639 450.224 540.319 455.344 533.069 451.114C526.739 447.424 527.149 438.864 521.869 434.114C516.589 429.364 507.439 429.984 500.269 432.354C499.055 432.912 497.696 433.066 496.389 432.794C494.119 431.994 494.279 429.174 494.839 427.094C497.569 417.044 500.349 406.894 505.659 397.654C507.589 394.284 509.869 391.034 511.109 387.414C513.279 381.074 512.169 373.904 515.019 367.904C511.959 369.904 509.019 372.084 507.129 374.904C502.869 381.254 504.519 389.334 502.129 396.384C500.889 400.004 498.609 403.254 496.679 406.624C491.369 415.864 488.589 426.014 485.859 436.064C485.299 438.144 485.139 440.964 487.409 441.764C488.716 442.036 490.075 441.882 491.289 441.324C498.459 438.954 507.569 438.274 512.889 443.084C518.209 447.894 517.759 456.424 524.089 460.084C531.339 464.314 542.659 459.204 549.239 464.194C552.059 466.334 553.079 469.764 555.389 472.344C560.769 478.344 571.119 478.054 579.729 476.844C584.669 476.144 590.729 475.674 593.729 479.144C595.169 480.784 595.579 483.034 597.249 484.514C600.249 487.194 605.739 485.834 608.669 483.084C610.547 481.128 612.155 478.928 613.449 476.544C610.849 477.334 608.079 477.214 606.229 475.544Z" fill="black"/>
<path opacity="0.1" d="M624.449 464.544C623.805 465.374 623.207 466.239 622.659 467.134C626.499 464.394 630.569 461.834 633.439 458.344C634.184 457.441 634.853 456.478 635.439 455.464C631.449 458.324 627.289 460.954 624.449 464.544Z" fill="black"/>
</g>
</g>
<defs>
<clipPath id="clip0">
<rect width="982.89" height="803.03" fill="white"/>
</clipPath>
</defs>
</svg>
